<svg width="139" height="50" viewBox="0 0 139 50" fill="none" xmlns="http://www.w3.org/2000/svg">
<path d="M27.0319 44.1406H22.9682C22.4288 44.1406 21.9916 44.5779 21.9916 45.1172C21.9916 45.6564 22.4288 46.0938 22.9682 46.0938H27.0319C27.5713 46.0938 28.0085 45.6564 28.0085 45.1172C28.0085 44.5779 27.5713 44.1406 27.0319 44.1406Z" fill="white"/>
<path d="M44.5312 7.8126H38.6719V5.69141C39.8085 5.28828 40.625 4.20283 40.625 2.92969C40.625 1.31426 39.3107 0 37.6953 0H12.3047C10.6893 0 9.375 1.31426 9.375 2.92979C9.375 4.20283 10.1915 5.28828 11.3281 5.69141V7.8126H5.46875C4.92939 7.8126 4.49219 8.2499 4.49219 8.78916V15.6251C4.49219 19.9329 7.99688 23.4376 12.3047 23.4376H13.1304C13.3181 23.7647 13.5187 24.086 13.7346 24.3994C15.1169 26.4059 16.9825 27.9923 19.1613 29.0275C19.1481 29.14 19.1406 29.2543 19.1406 29.3703C19.1406 30.7386 20.0837 31.8905 21.3538 32.211C20.1804 36.1207 18.0951 40.2344 15.625 40.2344H13.2812C12.7888 40.2344 12.3733 40.6011 12.3122 41.0898L11.3356 48.9023C11.3009 49.1803 11.3872 49.4598 11.5726 49.6697C11.7579 49.8797 12.0246 50 12.3047 50H37.6953C37.9754 50 38.2421 49.8798 38.4274 49.6697C38.6128 49.4598 38.6991 49.1802 38.6644 48.9023L37.6878 41.0898C37.6268 40.6011 37.2113 40.2344 36.7188 40.2344H34.375C32.88 40.2344 31.6168 38.6646 30.8204 37.3475C29.797 35.6551 29.0822 33.6615 28.6464 32.2108C29.9165 31.8903 30.8594 30.7384 30.8594 29.3702C30.8594 29.2542 30.8519 29.14 30.8387 29.0274C33.0179 27.9921 34.8837 26.4053 36.2661 24.3984C36.4817 24.0854 36.6821 23.7645 36.8696 23.4376H37.6953C42.0031 23.4376 45.5078 19.9329 45.5078 15.6251V8.78916C45.5078 8.2499 45.0706 7.8126 44.5312 7.8126ZM6.44531 15.6251V9.76572H11.3281V16.6749C11.3281 18.3331 11.6289 19.9556 12.2067 21.482C9.021 21.4293 6.44531 18.8231 6.44531 15.6251ZM36.5891 48.0469H13.4109L14.1434 42.1875H35.8566L36.5891 48.0469ZM30.5252 40.2344H19.4749C19.9494 39.7143 20.407 39.0913 20.8465 38.3655C22.0947 36.304 22.9142 33.8752 23.3623 32.2999H26.6378C27.0863 33.8769 27.9041 36.2995 29.1491 38.3582C29.5899 39.0871 30.049 39.7125 30.5252 40.2344ZM27.9297 30.3468H22.0703C21.5318 30.3468 21.0938 29.9087 21.0938 29.3702C21.0938 28.8317 21.5318 28.3937 22.0703 28.3937H27.9297C28.4682 28.3937 28.9062 28.8317 28.9062 29.3702C28.9062 29.9087 28.4682 30.3468 27.9297 30.3468ZM29.9754 27.2758C29.447 26.7596 28.725 26.4405 27.9297 26.4405H22.0703C21.275 26.4405 20.5531 26.7596 20.0246 27.2758C15.9074 25.3371 13.2812 21.2462 13.2812 16.6749V5.85938H20.6052C21.1445 5.85938 21.5817 5.42207 21.5817 4.88281C21.5817 4.34355 21.1445 3.90625 20.6052 3.90625H12.3047C11.7662 3.90625 11.3281 3.46816 11.3281 2.92969C11.3281 2.39121 11.7662 1.95312 12.3047 1.95312H37.6953C38.2338 1.95312 38.6719 2.39121 38.6719 2.92979C38.6719 3.46826 38.2338 3.90625 37.6953 3.90625H29.3942C28.8549 3.90625 28.4177 4.34355 28.4177 4.88281C28.4177 5.42207 28.8549 5.85938 29.3942 5.85938H36.7188V16.6749C36.7188 21.246 34.0925 25.3371 29.9754 27.2758ZM43.5547 15.6251C43.5547 18.8231 40.979 21.4293 37.7933 21.482C38.3711 19.9557 38.6719 18.3331 38.6719 16.6749V9.76572H43.5547V15.6251Z" fill="white"/>
<path d="M29.9893 12.7343L27.799 12.3463L26.7113 10.3454C26.7113 10.3453 26.7112 10.3451 26.7111 10.345C26.5286 10.0096 26.2537 9.73721 25.9163 9.55732C25.4568 9.3123 24.9295 9.26094 24.4314 9.4124C23.9333 9.56406 23.524 9.90058 23.2788 10.3604L22.2331 12.3233L20.0365 12.7316C19.643 12.7948 19.2831 12.9743 18.9947 13.2516C18.6192 13.6128 18.4069 14.0985 18.3968 14.6195C18.3866 15.1404 18.58 15.6342 18.942 16.0103L20.4869 17.6127L20.2035 19.7736C20.1274 20.186 20.1842 20.6025 20.3685 20.981C20.5968 21.4499 20.994 21.8018 21.4871 21.9718C21.6958 22.0437 21.9111 22.0796 22.1256 22.0796C22.4177 22.0796 22.7083 22.0132 22.9786 21.8816L24.9771 20.9088L27.0341 21.8888C27.3774 22.0526 27.7604 22.1114 28.1416 22.0586C28.6578 21.9873 29.1152 21.719 29.4298 21.3036C29.7442 20.8882 29.8781 20.375 29.8065 19.8575L29.4985 17.6535L31.0089 16.0604C31.3075 15.772 31.5028 15.4036 31.5745 14.993C31.7595 13.9324 31.0474 12.919 29.9893 12.7343ZM29.6087 14.6984L27.7575 16.651C27.553 16.8666 27.4579 17.1637 27.499 17.458L27.8745 20.1257L25.3924 18.9433C25.124 18.8155 24.8122 18.8167 24.5449 18.9469L22.1243 20.1268C22.1291 20.1036 22.133 20.0803 22.136 20.0569L22.4845 17.4005C22.5231 17.1058 22.4255 16.8096 22.2192 16.5957L20.3464 14.66C20.3574 14.6583 20.3685 14.6564 20.3794 14.6544L23.052 14.1577C23.3442 14.1033 23.5958 13.919 23.7355 13.6567L24.9972 11.282L26.3075 13.6925C26.4494 13.9535 26.7025 14.1358 26.9952 14.1876L29.6511 14.6562C29.6366 14.6698 29.6224 14.6839 29.6087 14.6984Z" fill="white"/>
<path d="M25 5.85938C25.5394 5.85938 25.9766 5.42207 25.9766 4.88281C25.9766 4.34355 25.5394 3.90625 25 3.90625H24.9993C24.46 3.90625 24.0231 4.34355 24.0231 4.88281C24.0231 5.42207 24.4606 5.85938 25 5.85938Z" fill="white"/>
<path d="M57.8398 33.7539H55.0391V40H51.5234V22.9375H57.8633C59.8789 22.9375 61.4336 23.3867 62.5273 24.2852C63.6211 25.1836 64.168 26.4531 64.168 28.0938C64.168 29.2578 63.9141 30.2305 63.4062 31.0117C62.9062 31.7852 62.1445 32.4023 61.1211 32.8633L64.8125 39.8359V40H61.0391L57.8398 33.7539ZM55.0391 30.9062H57.875C58.7578 30.9062 59.4414 30.6836 59.9258 30.2383C60.4102 29.7852 60.6523 29.1641 60.6523 28.375C60.6523 27.5703 60.4219 26.9375 59.9609 26.4766C59.5078 26.0156 58.8086 25.7852 57.8633 25.7852H55.0391V30.9062ZM73.9766 40C73.8203 39.6953 73.707 39.3164 73.6367 38.8633C72.8164 39.7773 71.75 40.2344 70.4375 40.2344C69.1953 40.2344 68.1641 39.875 67.3438 39.1562C66.5312 38.4375 66.125 37.5312 66.125 36.4375C66.125 35.0938 66.6211 34.0625 67.6133 33.3438C68.6133 32.625 70.0547 32.2617 71.9375 32.2539H73.4961V31.5273C73.4961 30.9414 73.3438 30.4727 73.0391 30.1211C72.7422 29.7695 72.2695 29.5938 71.6211 29.5938C71.0508 29.5938 70.6016 29.7305 70.2734 30.0039C69.9531 30.2773 69.793 30.6523 69.793 31.1289H66.4062C66.4062 30.3945 66.6328 29.7148 67.0859 29.0898C67.5391 28.4648 68.1797 27.9766 69.0078 27.625C69.8359 27.2656 70.7656 27.0859 71.7969 27.0859C73.3594 27.0859 74.5977 27.4805 75.5117 28.2695C76.4336 29.0508 76.8945 30.1523 76.8945 31.5742V37.0703C76.9023 38.2734 77.0703 39.1836 77.3984 39.8008V40H73.9766ZM71.1758 37.6445C71.6758 37.6445 72.1367 37.5352 72.5586 37.3164C72.9805 37.0898 73.293 36.7891 73.4961 36.4141V34.2344H72.2305C70.5352 34.2344 69.6328 34.8203 69.5234 35.9922L69.5117 36.1914C69.5117 36.6133 69.6602 36.9609 69.957 37.2344C70.2539 37.5078 70.6602 37.6445 71.1758 37.6445ZM82.6133 27.3203L82.7188 28.7852C83.625 27.6523 84.8398 27.0859 86.3633 27.0859C87.707 27.0859 88.707 27.4805 89.3633 28.2695C90.0195 29.0586 90.3555 30.2383 90.3711 31.8086V40H86.9844V31.8906C86.9844 31.1719 86.8281 30.6523 86.5156 30.332C86.2031 30.0039 85.6836 29.8398 84.957 29.8398C84.0039 29.8398 83.2891 30.2461 82.8125 31.0586V40H79.4258V27.3203H82.6133ZM97.5547 34.9141L96.3359 36.1328V40H92.9492V22H96.3359V31.9727L96.9922 31.1289L100.238 27.3203H104.305L99.7227 32.6055L104.703 40H100.812L97.5547 34.9141ZM109.344 40H105.945V27.3203H109.344V40ZM105.746 24.0391C105.746 23.5312 105.914 23.1133 106.25 22.7852C106.594 22.457 107.059 22.293 107.645 22.293C108.223 22.293 108.684 22.457 109.027 22.7852C109.371 23.1133 109.543 23.5312 109.543 24.0391C109.543 24.5547 109.367 24.9766 109.016 25.3047C108.672 25.6328 108.215 25.7969 107.645 25.7969C107.074 25.7969 106.613 25.6328 106.262 25.3047C105.918 24.9766 105.746 24.5547 105.746 24.0391ZM115.262 27.3203L115.367 28.7852C116.273 27.6523 117.488 27.0859 119.012 27.0859C120.355 27.0859 121.355 27.4805 122.012 28.2695C122.668 29.0586 123.004 30.2383 123.02 31.8086V40H119.633V31.8906C119.633 31.1719 119.477 30.6523 119.164 30.332C118.852 30.0039 118.332 29.8398 117.605 29.8398C116.652 29.8398 115.938 30.2461 115.461 31.0586V40H112.074V27.3203H115.262ZM125.105 33.5664C125.105 31.6211 125.566 30.0547 126.488 28.8672C127.418 27.6797 128.668 27.0859 130.238 27.0859C131.629 27.0859 132.711 27.5625 133.484 28.5156L133.625 27.3203H136.695V39.5781C136.695 40.6875 136.441 41.6523 135.934 42.4727C135.434 43.293 134.727 43.918 133.812 44.3477C132.898 44.7773 131.828 44.9922 130.602 44.9922C129.672 44.9922 128.766 44.8047 127.883 44.4297C127 44.0625 126.332 43.5859 125.879 43L127.379 40.9375C128.223 41.8828 129.246 42.3555 130.449 42.3555C131.348 42.3555 132.047 42.1133 132.547 41.6289C133.047 41.1523 133.297 40.4727 133.297 39.5898V38.9102C132.516 39.793 131.488 40.2344 130.215 40.2344C128.691 40.2344 127.457 39.6406 126.512 38.4531C125.574 37.2578 125.105 35.6758 125.105 33.707V33.5664ZM128.492 33.8125C128.492 34.9609 128.723 35.8633 129.184 36.5195C129.645 37.168 130.277 37.4922 131.082 37.4922C132.113 37.4922 132.852 37.1055 133.297 36.332V31C132.844 30.2266 132.113 29.8398 131.105 29.8398C130.293 29.8398 129.652 30.1719 129.184 30.8359C128.723 31.5 128.492 32.4922 128.492 33.8125Z" fill="white"/>
</svg>
